<svg xmlns="http://www.w3.org/2000/svg" width="1000" height="400" viewBox="0 0 1000 400">
<rect width="100%" height="100%" fill="white"/>
<line x1="60.00" y1="60" x2="60.00" y2="340" stroke="#dddddd" stroke-width="1"/>
<text x="60.00" y="360" font-size="12" text-anchor="middle">0.00 km</text>
<line x1="206.67" y1="60" x2="206.67" y2="340" stroke="#dddddd" stroke-width="1"/>
<text x="206.67" y="360" font-size="12" text-anchor="middle">0.71 km</text>
<line x1="353.33" y1="60" x2="353.33" y2="340" stroke="#dddddd" stroke-width="1"/>
<text x="353.33" y="360" font-size="12" text-anchor="middle">1.41 km</text>
<line x1="500.00" y1="60" x2="500.00" y2="340" stroke="#dddddd" stroke-width="1"/>
<text x="500.00" y="360" font-size="12" text-anchor="middle">2.12 km</text>
<line x1="646.67" y1="60" x2="646.67" y2="340" stroke="#dddddd" stroke-width="1"/>
<text x="646.67" y="360" font-size="12" text-anchor="middle">2.83 km</text>
<line x1="793.33" y1="60" x2="793.33" y2="340" stroke="#dddddd" stroke-width="1"/>
<text x="793.33" y="360" font-size="12" text-anchor="middle">3.54 km</text>
<line x1="940.00" y1="60" x2="940.00" y2="340" stroke="#dddddd" stroke-width="1"/>
<text x="940.00" y="360" font-size="12" text-anchor="middle">4.24 km</text>
<line x1="60" y1="340.00" x2="940" y2="340.00" stroke="#eeeeee" stroke-width="1"/>
<text x="50" y="344.00" font-size="12" text-anchor="end">205 m</text>
<line x1="60" y1="284.00" x2="940" y2="284.00" stroke="#eeeeee" stroke-width="1"/>
<text x="50" y="288.00" font-size="12" text-anchor="end">208 m</text>
<line x1="60" y1="228.00" x2="940" y2="228.00" stroke="#eeeeee" stroke-width="1"/>
<text x="50" y="232.00" font-size="12" text-anchor="end">210 m</text>
<line x1="60" y1="172.00" x2="940" y2="172.00" stroke="#eeeeee" stroke-width="1"/>
<text x="50" y="176.00" font-size="12" text-anchor="end">213 m</text>
<line x1="60" y1="116.00" x2="940" y2="116.00" stroke="#eeeeee" stroke-width="1"/>
<text x="50" y="120.00" font-size="12" text-anchor="end">215 m</text>
<line x1="60" y1="60.00" x2="940" y2="60.00" stroke="#eeeeee" stroke-width="1"/>
<text x="50" y="64.00" font-size="12" text-anchor="end">218 m</text>
<text x="500.0" y="390" font-size="14" text-anchor="middle">Distancia (km)</text>
<text x="20" y="200.0" font-size="14" text-anchor="middle" transform="rotate(-90 20,200.0)">Altitud (m)</text>
<polygon points="60.00,232.31 194.81,189.23 369.03,60.00 617.91,340.00 940.00,232.31 940.00,340.00 60.00,340.00" fill="#f0f0ff" stroke="none"/>
<polyline points="60.00,232.31 194.81,189.23 369.03,60.00 617.91,340.00 940.00,232.31" fill="none" stroke="black" stroke-width="2"/>
<circle cx="60.00" cy="232.31" r="3" fill="black"/>
<text x="66.00" y="236.31" font-size="10">0</text>
<circle cx="194.81" cy="189.23" r="3" fill="black"/>
<text x="200.81" y="193.23" font-size="10">1</text>
<circle cx="369.03" cy="60.00" r="3" fill="black"/>
<text x="375.03" y="64.00" font-size="10">2</text>
<circle cx="617.91" cy="340.00" r="3" fill="black"/>
<text x="623.91" y="344.00" font-size="10">3</text>
<circle cx="940.00" cy="232.31" r="3" fill="black"/>
<text x="946.00" y="236.31" font-size="10">4</text>
</svg>