<?xml version="1.0" encoding="UTF-8"?>
<svg width="1000" height="500" xmlns="http://www.w3.org/2000/svg">
<polyline points="60.0,440.0 281.6538224209048,210.0 318.3972363379589,160.0 352.48286215545954,150.0 359.29723653491516,145.0 368.8735724971004,130.0 384.66705815728596,90.0 398.2878241810147,75.0 406.5413497559771,65.0 424.20172387857144,60.0 452.9318504687418,80.0 460.7107007502822,80.0 468.96428849077915,90.0 483.32092927623285,110.0 508.9950025811957,165.0 526.2184413047933,215.00000000000003 531.8045890869291,229.99999999999997 544.7328677839926,260.0 565.8976043167834,270.0 575.1403820631087,270.0 589.6523303081021,270.0 601.0874629772761,200.0 609.3508793415981,170.0 621.3340219958613,140.0 645.3185758290294,130.0 650.1098830080754,130.0 658.4939017265082,140.0 665.3008603096002,150.0 670.0862815738254,155.0 710.5290425006434,135.0 715.3202502467249,140.0 723.713823000392,155.0 731.9771380908952,165.0 735.8665632315319,175.0 745.4317976253999,180.0 752.2465807418811,185.0 756.1360058826959,185.0 767.7902905669903,189.99999999999997 791.7295533648003,189.99999999999997 817.397152866928,185.0 825.6507938847056,189.99999999999997 829.5402190254313,189.99999999999997 834.3316026980866,200.0 841.1385316612115,215.00000000000003 850.3903344187634,240.0 859.9672194625961,255.0 885.8193875864258,235.0 940.0,210.0 940.0,440.0 60.0,440.0" stroke="black" stroke-width="2" fill="lightgray" />
</svg>