<?xml version="1.0" encoding="utf-8"?><svg width="auto" height="3570" style="overflow:visible " version="1.1" xmlns="http://www.w3.org/2000/svg"><rect x="20" y="20" width="200" height="40" style="fill:white;stroke:black;stroke-width:1" /><text x="30" y="30" font-size="10" style="fill:blue">circuito</text><text x="30" y="40" font-size="8" style="fill:black">xmlns: http://www.uniovi.es</text><text x="30" y="50" font-size="8" style="fill:black">xmlns:xsi: http://www.w3.org/2001/XMLSchema-instance</text><text x="30" y="60" font-size="8" style="fill:black">xsi:schemaLocation: http://www.uniovi.es circuito.xsd</text><rect x="240" y="20" width="200" height="40" style="fill:white;stroke:black;stroke-width:1" /><text x="250" y="30" font-size="10" style="fill:blue">nombre</text><path d="M220 40 C240 40 220 40 240 40" style="fill:transparent;stroke:black" /><rect x="306" y="20" width="137" height="40" style="fill:green;stroke:black;stroke-width:1" /><text x="316" y="30" font-size="8" style="fill:white">Circuito Internazionale del Mugello</text><rect x="240" y="70" width="200" height="40" style="fill:white;stroke:black;stroke-width:1" /><text x="250" y="80" font-size="10" style="fill:blue">longitud</text><path d="M220 40 C240 40 220 90 240 90" style="fill:transparent;stroke:black" /><text x="250" y="90" font-size="8" style="fill:black">unidad: m</text><rect x="306" y="70" width="137" height="40" style="fill:green;stroke:black;stroke-width:1" /><text x="316" y="80" font-size="8" style="fill:white">5243.0</text><rect x="240" y="120" width="200" height="40" style="fill:white;stroke:black;stroke-width:1" /><text x="250" y="130" font-size="10" style="fill:blue">anchura</text><path d="M220 40 C240 40 220 140 240 140" style="fill:transparent;stroke:black" /><text x="250" y="140" font-size="8" style="fill:black">unidad: m</text><rect x="306" y="120" width="137" height="40" style="fill:green;stroke:black;stroke-width:1" /><text x="316" y="130" font-size="8" style="fill:white">14.0</text><rect x="240" y="170" width="200" height="40" style="fill:white;stroke:black;stroke-width:1" /><text x="250" y="180" font-size="10" style="fill:blue">fecha</text><path d="M220 40 C240 40 220 190 240 190" style="fill:transparent;stroke:black" /><rect x="306" y="170" width="137" height="40" style="fill:green;stroke:black;stroke-width:1" /><text x="316" y="180" font-size="8" style="fill:white">2025-05-11</text><rect x="240" y="220" width="200" height="40" style="fill:white;stroke:black;stroke-width:1" /><text x="250" y="230" font-size="10" style="fill:blue">hora</text><path d="M220 40 C240 40 220 240 240 240" style="fill:transparent;stroke:black" /><rect x="306" y="220" width="137" height="40" style="fill:green;stroke:black;stroke-width:1" /><text x="316" y="230" font-size="8" style="fill:white">14:00:00</text><rect x="240" y="270" width="200" height="40" style="fill:white;stroke:black;stroke-width:1" /><text x="250" y="280" font-size="10" style="fill:blue">numVueltas</text><path d="M220 40 C240 40 220 290 240 290" style="fill:transparent;stroke:black" /><rect x="306" y="270" width="137" height="40" style="fill:green;stroke:black;stroke-width:1" /><text x="316" y="280" font-size="8" style="fill:white">23</text><rect x="240" y="320" width="200" height="40" style="fill:white;stroke:black;stroke-width:1" /><text x="250" y="330" font-size="10" style="fill:blue">localidad</text><path d="M220 40 C240 40 220 340 240 340" style="fill:transparent;stroke:black" /><rect x="306" y="320" width="137" height="40" style="fill:green;stroke:black;stroke-width:1" /><text x="316" y="330" font-size="8" style="fill:white">Scarperia e San Piero</text><rect x="240" y="370" width="200" height="40" style="fill:white;stroke:black;stroke-width:1" /><text x="250" y="380" font-size="10" style="fill:blue">pais</text><path d="M220 40 C240 40 220 390 240 390" style="fill:transparent;stroke:black" /><rect x="306" y="370" width="137" height="40" style="fill:green;stroke:black;stroke-width:1" /><text x="316" y="380" font-size="8" style="fill:white">Italia</text><rect x="240" y="420" width="200" height="40" style="fill:white;stroke:black;stroke-width:1" /><text x="250" y="430" font-size="10" style="fill:blue">patrocinador</text><path d="M220 40 C240 40 220 440 240 440" style="fill:transparent;stroke:black" /><rect x="306" y="420" width="137" height="40" style="fill:green;stroke:black;stroke-width:1" /><text x="316" y="430" font-size="8" style="fill:white">Ducati</text><rect x="240" y="470" width="200" height="40" style="fill:white;stroke:black;stroke-width:1" /><text x="250" y="480" font-size="10" style="fill:blue">referencias</text><path d="M220 40 C240 40 220 490 240 490" style="fill:transparent;stroke:black" /><rect x="460" y="470" width="200" height="40" style="fill:white;stroke:black;stroke-width:1" /><text x="470" y="480" font-size="10" style="fill:blue">referencia</text><path d="M440 490 C460 490 440 490 460 490" style="fill:transparent;stroke:black" /><text x="470" y="490" font-size="8" style="fill:black">url: https://www.motogp.com/en/circuit/Mugello</text><rect x="680" y="470" width="200" height="40" style="fill:white;stroke:black;stroke-width:1" /><text x="690" y="480" font-size="10" style="fill:blue">titulo</text><path d="M660 490 C680 490 660 490 680 490" style="fill:transparent;stroke:black" /><rect x="746" y="470" width="137" height="40" style="fill:green;stroke:black;stroke-width:1" /><text x="756" y="480" font-size="8" style="fill:white">MotoGP Official - Mugello circuit information</text><rect x="680" y="520" width="200" height="40" style="fill:white;stroke:black;stroke-width:1" /><text x="690" y="530" font-size="10" style="fill:blue">autor</text><path d="M660 490 C680 490 660 540 680 540" style="fill:transparent;stroke:black" /><rect x="746" y="520" width="137" height="40" style="fill:green;stroke:black;stroke-width:1" /><text x="756" y="530" font-size="8" style="fill:white">MotoGP</text><rect x="680" y="570" width="200" height="40" style="fill:white;stroke:black;stroke-width:1" /><text x="690" y="580" font-size="10" style="fill:blue">año</text><path d="M660 490 C680 490 660 590 680 590" style="fill:transparent;stroke:black" /><rect x="746" y="570" width="137" height="40" style="fill:green;stroke:black;stroke-width:1" /><text x="756" y="580" font-size="8" style="fill:white">2024</text><rect x="460" y="670" width="200" height="40" style="fill:white;stroke:black;stroke-width:1" /><text x="470" y="680" font-size="10" style="fill:blue">referencia</text><path d="M440 490 C460 490 440 690 460 690" style="fill:transparent;stroke:black" /><text x="470" y="690" font-size="8" style="fill:black">url: https://es.wikipedia.org/wiki/Autodromo_Internazionale_del_Mugello</text><rect x="680" y="670" width="200" height="40" style="fill:white;stroke:black;stroke-width:1" /><text x="690" y="680" font-size="10" style="fill:blue">titulo</text><path d="M660 690 C680 690 660 690 680 690" style="fill:transparent;stroke:black" /><rect x="746" y="670" width="137" height="40" style="fill:green;stroke:black;stroke-width:1" /><text x="756" y="680" font-size="8" style="fill:white">Wikipedia - Autodromo Internazionale del Mugello</text><rect x="680" y="720" width="200" height="40" style="fill:white;stroke:black;stroke-width:1" /><text x="690" y="730" font-size="10" style="fill:blue">autor</text><path d="M660 690 C680 690 660 740 680 740" style="fill:transparent;stroke:black" /><rect x="746" y="720" width="137" height="40" style="fill:green;stroke:black;stroke-width:1" /><text x="756" y="730" font-size="8" style="fill:white">Wikipedia</text><rect x="680" y="770" width="200" height="40" style="fill:white;stroke:black;stroke-width:1" /><text x="690" y="780" font-size="10" style="fill:blue">año</text><path d="M660 690 C680 690 660 790 680 790" style="fill:transparent;stroke:black" /><rect x="746" y="770" width="137" height="40" style="fill:green;stroke:black;stroke-width:1" /><text x="756" y="780" font-size="8" style="fill:white">2025</text><rect x="460" y="870" width="200" height="40" style="fill:white;stroke:black;stroke-width:1" /><text x="470" y="880" font-size="10" style="fill:blue">referencia</text><path d="M440 490 C460 490 440 890 460 890" style="fill:transparent;stroke:black" /><text x="470" y="890" font-size="8" style="fill:black">url: https://www.fim-moto.com</text><rect x="680" y="870" width="200" height="40" style="fill:white;stroke:black;stroke-width:1" /><text x="690" y="880" font-size="10" style="fill:blue">titulo</text><path d="M660 890 C680 890 660 890 680 890" style="fill:transparent;stroke:black" /><rect x="746" y="870" width="137" height="40" style="fill:green;stroke:black;stroke-width:1" /><text x="756" y="880" font-size="8" style="fill:white">FIM - Circuit technical data and map</text><rect x="680" y="920" width="200" height="40" style="fill:white;stroke:black;stroke-width:1" /><text x="690" y="930" font-size="10" style="fill:blue">autor</text><path d="M660 890 C680 890 660 940 680 940" style="fill:transparent;stroke:black" /><rect x="746" y="920" width="137" height="40" style="fill:green;stroke:black;stroke-width:1" /><text x="756" y="930" font-size="8" style="fill:white">FIM</text><rect x="680" y="970" width="200" height="40" style="fill:white;stroke:black;stroke-width:1" /><text x="690" y="980" font-size="10" style="fill:blue">año</text><path d="M660 890 C680 890 660 990 680 990" style="fill:transparent;stroke:black" /><rect x="746" y="970" width="137" height="40" style="fill:green;stroke:black;stroke-width:1" /><text x="756" y="980" font-size="8" style="fill:white">2023</text><rect x="240" y="1120" width="200" height="40" style="fill:white;stroke:black;stroke-width:1" /><text x="250" y="1130" font-size="10" style="fill:blue">galeriaFotos</text><path d="M220 40 C240 40 220 1140 240 1140" style="fill:transparent;stroke:black" /><rect x="460" y="1120" width="200" height="40" style="fill:white;stroke:black;stroke-width:1" /><text x="470" y="1130" font-size="10" style="fill:blue">foto</text><path d="M440 1140 C460 1140 440 1140 460 1140" style="fill:transparent;stroke:black" /><text x="470" y="1140" font-size="8" style="fill:black">src: ../multimedia/Panorama.jpg</text><text x="470" y="1150" font-size="8" style="fill:black">alt: Foto panorámica del circuito</text><rect x="460" y="1170" width="200" height="40" style="fill:white;stroke:black;stroke-width:1" /><text x="470" y="1180" font-size="10" style="fill:blue">foto</text><path d="M440 1140 C460 1140 440 1190 460 1190" style="fill:transparent;stroke:black" /><text x="470" y="1190" font-size="8" style="fill:black">src: ../multimedia/RectaMeta.jpg</text><text x="470" y="1200" font-size="8" style="fill:black">alt: Foto de la recta de meta del circuito</text><rect x="460" y="1220" width="200" height="40" style="fill:white;stroke:black;stroke-width:1" /><text x="470" y="1230" font-size="10" style="fill:blue">foto</text><path d="M440 1140 C460 1140 440 1240 460 1240" style="fill:transparent;stroke:black" /><text x="470" y="1240" font-size="8" style="fill:black">src: ../multimedia/CurvaSanDonato.jpg</text><text x="470" y="1250" font-size="8" style="fill:black">alt: Foto de la curva San Donato del circuito</text><rect x="240" y="1320" width="200" height="40" style="fill:white;stroke:black;stroke-width:1" /><text x="250" y="1330" font-size="10" style="fill:blue">galeriaVideos</text><path d="M220 40 C240 40 220 1340 240 1340" style="fill:transparent;stroke:black" /><rect x="460" y="1320" width="200" height="40" style="fill:white;stroke:black;stroke-width:1" /><text x="470" y="1330" font-size="10" style="fill:blue">video</text><path d="M440 1340 C460 1340 440 1340 460 1340" style="fill:transparent;stroke:black" /><text x="470" y="1340" font-size="8" style="fill:black">src: ../multimedia/ResumenCircuito.mp4</text><text x="470" y="1350" font-size="8" style="fill:black">alt: Video del resumen del circuito</text><rect x="240" y="1420" width="200" height="40" style="fill:white;stroke:black;stroke-width:1" /><text x="250" y="1430" font-size="10" style="fill:blue">origen</text><path d="M220 40 C240 40 220 1440 240 1440" style="fill:transparent;stroke:black" /><rect x="460" y="1420" width="200" height="40" style="fill:white;stroke:black;stroke-width:1" /><text x="470" y="1430" font-size="10" style="fill:blue">longitudCoord</text><path d="M440 1440 C460 1440 440 1440 460 1440" style="fill:transparent;stroke:black" /><text x="470" y="1440" font-size="8" style="fill:black">unidad: deg</text><rect x="526" y="1420" width="137" height="40" style="fill:green;stroke:black;stroke-width:1" /><text x="536" y="1430" font-size="8" style="fill:white">11.3497</text><rect x="460" y="1470" width="200" height="40" style="fill:white;stroke:black;stroke-width:1" /><text x="470" y="1480" font-size="10" style="fill:blue">latitudCoord</text><path d="M440 1440 C460 1440 440 1490 460 1490" style="fill:transparent;stroke:black" /><text x="470" y="1490" font-size="8" style="fill:black">unidad: deg</text><rect x="526" y="1470" width="137" height="40" style="fill:green;stroke:black;stroke-width:1" /><text x="536" y="1480" font-size="8" style="fill:white">43.9972</text><rect x="460" y="1520" width="200" height="40" style="fill:white;stroke:black;stroke-width:1" /><text x="470" y="1530" font-size="10" style="fill:blue">altitudCoord</text><path d="M440 1440 C460 1440 440 1540 460 1540" style="fill:transparent;stroke:black" /><text x="470" y="1540" font-size="8" style="fill:black">unidad: m</text><rect x="526" y="1520" width="137" height="40" style="fill:green;stroke:black;stroke-width:1" /><text x="536" y="1530" font-size="8" style="fill:white">210.0</text><rect x="240" y="1620" width="200" height="40" style="fill:white;stroke:black;stroke-width:1" /><text x="250" y="1630" font-size="10" style="fill:blue">tramos</text><path d="M220 40 C240 40 220 1640 240 1640" style="fill:transparent;stroke:black" /><rect x="460" y="1620" width="200" height="40" style="fill:white;stroke:black;stroke-width:1" /><text x="470" y="1630" font-size="10" style="fill:blue">tramo</text><path d="M440 1640 C460 1640 440 1640 460 1640" style="fill:transparent;stroke:black" /><text x="470" y="1640" font-size="8" style="fill:black">distancia: 650.0</text><rect x="680" y="1620" width="200" height="40" style="fill:white;stroke:black;stroke-width:1" /><text x="690" y="1630" font-size="10" style="fill:blue">puntoFinal</text><path d="M660 1640 C680 1640 660 1640 680 1640" style="fill:transparent;stroke:black" /><rect x="900" y="1620" width="200" height="40" style="fill:white;stroke:black;stroke-width:1" /><text x="910" y="1630" font-size="10" style="fill:blue">longFinal</text><path d="M880 1640 C900 1640 880 1640 900 1640" style="fill:transparent;stroke:black" /><text x="910" y="1640" font-size="8" style="fill:black">unidad: deg</text><rect x="966" y="1620" width="137" height="40" style="fill:green;stroke:black;stroke-width:1" /><text x="976" y="1630" font-size="8" style="fill:white">11.3521</text><rect x="900" y="1670" width="200" height="40" style="fill:white;stroke:black;stroke-width:1" /><text x="910" y="1680" font-size="10" style="fill:blue">latFinal</text><path d="M880 1640 C900 1640 880 1690 900 1690" style="fill:transparent;stroke:black" /><text x="910" y="1690" font-size="8" style="fill:black">unidad: deg</text><rect x="966" y="1670" width="137" height="40" style="fill:green;stroke:black;stroke-width:1" /><text x="976" y="1680" font-size="8" style="fill:white">43.9980</text><rect x="900" y="1720" width="200" height="40" style="fill:white;stroke:black;stroke-width:1" /><text x="910" y="1730" font-size="10" style="fill:blue">altFinal</text><path d="M880 1640 C900 1640 880 1740 900 1740" style="fill:transparent;stroke:black" /><text x="910" y="1740" font-size="8" style="fill:black">unidad: m</text><rect x="966" y="1720" width="137" height="40" style="fill:green;stroke:black;stroke-width:1" /><text x="976" y="1730" font-size="8" style="fill:white">212.0</text><rect x="680" y="1820" width="200" height="40" style="fill:white;stroke:black;stroke-width:1" /><text x="690" y="1830" font-size="10" style="fill:blue">sector</text><path d="M660 1640 C680 1640 660 1840 680 1840" style="fill:transparent;stroke:black" /><rect x="746" y="1820" width="137" height="40" style="fill:green;stroke:black;stroke-width:1" /><text x="756" y="1830" font-size="8" style="fill:white">1</text><rect x="460" y="1920" width="200" height="40" style="fill:white;stroke:black;stroke-width:1" /><text x="470" y="1930" font-size="10" style="fill:blue">tramo</text><path d="M440 1640 C460 1640 440 1940 460 1940" style="fill:transparent;stroke:black" /><text x="470" y="1940" font-size="8" style="fill:black">distancia: 840.0</text><rect x="680" y="1920" width="200" height="40" style="fill:white;stroke:black;stroke-width:1" /><text x="690" y="1930" font-size="10" style="fill:blue">puntoFinal</text><path d="M660 1940 C680 1940 660 1940 680 1940" style="fill:transparent;stroke:black" /><rect x="900" y="1920" width="200" height="40" style="fill:white;stroke:black;stroke-width:1" /><text x="910" y="1930" font-size="10" style="fill:blue">longFinal</text><path d="M880 1940 C900 1940 880 1940 900 1940" style="fill:transparent;stroke:black" /><text x="910" y="1940" font-size="8" style="fill:black">unidad: deg</text><rect x="966" y="1920" width="137" height="40" style="fill:green;stroke:black;stroke-width:1" /><text x="976" y="1930" font-size="8" style="fill:white">11.3540</text><rect x="900" y="1970" width="200" height="40" style="fill:white;stroke:black;stroke-width:1" /><text x="910" y="1980" font-size="10" style="fill:blue">latFinal</text><path d="M880 1940 C900 1940 880 1990 900 1990" style="fill:transparent;stroke:black" /><text x="910" y="1990" font-size="8" style="fill:black">unidad: deg</text><rect x="966" y="1970" width="137" height="40" style="fill:green;stroke:black;stroke-width:1" /><text x="976" y="1980" font-size="8" style="fill:white">44.0002</text><rect x="900" y="2020" width="200" height="40" style="fill:white;stroke:black;stroke-width:1" /><text x="910" y="2030" font-size="10" style="fill:blue">altFinal</text><path d="M880 1940 C900 1940 880 2040 900 2040" style="fill:transparent;stroke:black" /><text x="910" y="2040" font-size="8" style="fill:black">unidad: m</text><rect x="966" y="2020" width="137" height="40" style="fill:green;stroke:black;stroke-width:1" /><text x="976" y="2030" font-size="8" style="fill:white">218.0</text><rect x="680" y="2120" width="200" height="40" style="fill:white;stroke:black;stroke-width:1" /><text x="690" y="2130" font-size="10" style="fill:blue">sector</text><path d="M660 1940 C680 1940 660 2140 680 2140" style="fill:transparent;stroke:black" /><rect x="746" y="2120" width="137" height="40" style="fill:green;stroke:black;stroke-width:1" /><text x="756" y="2130" font-size="8" style="fill:white">1</text><rect x="460" y="2220" width="200" height="40" style="fill:white;stroke:black;stroke-width:1" /><text x="470" y="2230" font-size="10" style="fill:blue">tramo</text><path d="M440 1640 C460 1640 440 2240 460 2240" style="fill:transparent;stroke:black" /><text x="470" y="2240" font-size="8" style="fill:black">distancia: 1200.0</text><rect x="680" y="2220" width="200" height="40" style="fill:white;stroke:black;stroke-width:1" /><text x="690" y="2230" font-size="10" style="fill:blue">puntoFinal</text><path d="M660 2240 C680 2240 660 2240 680 2240" style="fill:transparent;stroke:black" /><rect x="900" y="2220" width="200" height="40" style="fill:white;stroke:black;stroke-width:1" /><text x="910" y="2230" font-size="10" style="fill:blue">longFinal</text><path d="M880 2240 C900 2240 880 2240 900 2240" style="fill:transparent;stroke:black" /><text x="910" y="2240" font-size="8" style="fill:black">unidad: deg</text><rect x="966" y="2220" width="137" height="40" style="fill:green;stroke:black;stroke-width:1" /><text x="976" y="2230" font-size="8" style="fill:white">11.3458</text><rect x="900" y="2270" width="200" height="40" style="fill:white;stroke:black;stroke-width:1" /><text x="910" y="2280" font-size="10" style="fill:blue">latFinal</text><path d="M880 2240 C900 2240 880 2290 900 2290" style="fill:transparent;stroke:black" /><text x="910" y="2290" font-size="8" style="fill:black">unidad: deg</text><rect x="966" y="2270" width="137" height="40" style="fill:green;stroke:black;stroke-width:1" /><text x="976" y="2280" font-size="8" style="fill:white">44.0010</text><rect x="900" y="2320" width="200" height="40" style="fill:white;stroke:black;stroke-width:1" /><text x="910" y="2330" font-size="10" style="fill:blue">altFinal</text><path d="M880 2240 C900 2240 880 2340 900 2340" style="fill:transparent;stroke:black" /><text x="910" y="2340" font-size="8" style="fill:black">unidad: m</text><rect x="966" y="2320" width="137" height="40" style="fill:green;stroke:black;stroke-width:1" /><text x="976" y="2330" font-size="8" style="fill:white">205.0</text><rect x="680" y="2420" width="200" height="40" style="fill:white;stroke:black;stroke-width:1" /><text x="690" y="2430" font-size="10" style="fill:blue">sector</text><path d="M660 2240 C680 2240 660 2440 680 2440" style="fill:transparent;stroke:black" /><rect x="746" y="2420" width="137" height="40" style="fill:green;stroke:black;stroke-width:1" /><text x="756" y="2430" font-size="8" style="fill:white">2</text><rect x="460" y="2520" width="200" height="40" style="fill:white;stroke:black;stroke-width:1" /><text x="470" y="2530" font-size="10" style="fill:blue">tramo</text><path d="M440 1640 C460 1640 440 2540 460 2540" style="fill:transparent;stroke:black" /><text x="470" y="2540" font-size="8" style="fill:black">distancia: 1553.0</text><rect x="680" y="2520" width="200" height="40" style="fill:white;stroke:black;stroke-width:1" /><text x="690" y="2530" font-size="10" style="fill:blue">puntoFinal</text><path d="M660 2540 C680 2540 660 2540 680 2540" style="fill:transparent;stroke:black" /><rect x="900" y="2520" width="200" height="40" style="fill:white;stroke:black;stroke-width:1" /><text x="910" y="2530" font-size="10" style="fill:blue">longFinal</text><path d="M880 2540 C900 2540 880 2540 900 2540" style="fill:transparent;stroke:black" /><text x="910" y="2540" font-size="8" style="fill:black">unidad: deg</text><rect x="966" y="2520" width="137" height="40" style="fill:green;stroke:black;stroke-width:1" /><text x="976" y="2530" font-size="8" style="fill:white">11.3497</text><rect x="900" y="2570" width="200" height="40" style="fill:white;stroke:black;stroke-width:1" /><text x="910" y="2580" font-size="10" style="fill:blue">latFinal</text><path d="M880 2540 C900 2540 880 2590 900 2590" style="fill:transparent;stroke:black" /><text x="910" y="2590" font-size="8" style="fill:black">unidad: deg</text><rect x="966" y="2570" width="137" height="40" style="fill:green;stroke:black;stroke-width:1" /><text x="976" y="2580" font-size="8" style="fill:white">43.9972</text><rect x="900" y="2620" width="200" height="40" style="fill:white;stroke:black;stroke-width:1" /><text x="910" y="2630" font-size="10" style="fill:blue">altFinal</text><path d="M880 2540 C900 2540 880 2640 900 2640" style="fill:transparent;stroke:black" /><text x="910" y="2640" font-size="8" style="fill:black">unidad: m</text><rect x="966" y="2620" width="137" height="40" style="fill:green;stroke:black;stroke-width:1" /><text x="976" y="2630" font-size="8" style="fill:white">210.0</text><rect x="680" y="2720" width="200" height="40" style="fill:white;stroke:black;stroke-width:1" /><text x="690" y="2730" font-size="10" style="fill:blue">sector</text><path d="M660 2540 C680 2540 660 2740 680 2740" style="fill:transparent;stroke:black" /><rect x="746" y="2720" width="137" height="40" style="fill:green;stroke:black;stroke-width:1" /><text x="756" y="2730" font-size="8" style="fill:white">3</text><rect x="240" y="2870" width="200" height="40" style="fill:white;stroke:black;stroke-width:1" /><text x="250" y="2880" font-size="10" style="fill:blue">vencedor</text><path d="M220 40 C240 40 220 2890 240 2890" style="fill:transparent;stroke:black" /><rect x="460" y="2870" width="200" height="40" style="fill:white;stroke:black;stroke-width:1" /><text x="470" y="2880" font-size="10" style="fill:blue">nombreVencedor</text><path d="M440 2890 C460 2890 440 2890 460 2890" style="fill:transparent;stroke:black" /><rect x="526" y="2870" width="137" height="40" style="fill:green;stroke:black;stroke-width:1" /><text x="536" y="2880" font-size="8" style="fill:white">Marc Marquez</text><rect x="460" y="2920" width="200" height="40" style="fill:white;stroke:black;stroke-width:1" /><text x="470" y="2930" font-size="10" style="fill:blue">duracion</text><path d="M440 2890 C460 2890 440 2940 460 2940" style="fill:transparent;stroke:black" /><rect x="526" y="2920" width="137" height="40" style="fill:green;stroke:black;stroke-width:1" /><text x="536" y="2930" font-size="8" style="fill:white">PT41M9.214S</text><rect x="240" y="3020" width="200" height="40" style="fill:white;stroke:black;stroke-width:1" /><text x="250" y="3030" font-size="10" style="fill:blue">clasificacion</text><path d="M220 40 C240 40 220 3040 240 3040" style="fill:transparent;stroke:black" /><rect x="460" y="3020" width="200" height="40" style="fill:white;stroke:black;stroke-width:1" /><text x="470" y="3030" font-size="10" style="fill:blue">puesto</text><path d="M440 3040 C460 3040 440 3040 460 3040" style="fill:transparent;stroke:black" /><text x="470" y="3040" font-size="8" style="fill:black">pos: 1</text><rect x="680" y="3020" width="200" height="40" style="fill:white;stroke:black;stroke-width:1" /><text x="690" y="3030" font-size="10" style="fill:blue">piloto</text><path d="M660 3040 C680 3040 660 3040 680 3040" style="fill:transparent;stroke:black" /><rect x="746" y="3020" width="137" height="40" style="fill:green;stroke:black;stroke-width:1" /><text x="756" y="3030" font-size="8" style="fill:white">Marc Marquez</text><rect x="680" y="3070" width="200" height="40" style="fill:white;stroke:black;stroke-width:1" /><text x="690" y="3080" font-size="10" style="fill:blue">puntos</text><path d="M660 3040 C680 3040 660 3090 680 3090" style="fill:transparent;stroke:black" /><rect x="746" y="3070" width="137" height="40" style="fill:green;stroke:black;stroke-width:1" /><text x="756" y="3080" font-size="8" style="fill:white">25</text><rect x="460" y="3170" width="200" height="40" style="fill:white;stroke:black;stroke-width:1" /><text x="470" y="3180" font-size="10" style="fill:blue">puesto</text><path d="M440 3040 C460 3040 440 3190 460 3190" style="fill:transparent;stroke:black" /><text x="470" y="3190" font-size="8" style="fill:black">pos: 2</text><rect x="680" y="3170" width="200" height="40" style="fill:white;stroke:black;stroke-width:1" /><text x="690" y="3180" font-size="10" style="fill:blue">piloto</text><path d="M660 3190 C680 3190 660 3190 680 3190" style="fill:transparent;stroke:black" /><rect x="746" y="3170" width="137" height="40" style="fill:green;stroke:black;stroke-width:1" /><text x="756" y="3180" font-size="8" style="fill:white">Alex Marquez</text><rect x="680" y="3220" width="200" height="40" style="fill:white;stroke:black;stroke-width:1" /><text x="690" y="3230" font-size="10" style="fill:blue">puntos</text><path d="M660 3190 C680 3190 660 3240 680 3240" style="fill:transparent;stroke:black" /><rect x="746" y="3220" width="137" height="40" style="fill:green;stroke:black;stroke-width:1" /><text x="756" y="3230" font-size="8" style="fill:white">20</text><rect x="460" y="3320" width="200" height="40" style="fill:white;stroke:black;stroke-width:1" /><text x="470" y="3330" font-size="10" style="fill:blue">puesto</text><path d="M440 3040 C460 3040 440 3340 460 3340" style="fill:transparent;stroke:black" /><text x="470" y="3340" font-size="8" style="fill:black">pos: 3</text><rect x="680" y="3320" width="200" height="40" style="fill:white;stroke:black;stroke-width:1" /><text x="690" y="3330" font-size="10" style="fill:blue">piloto</text><path d="M660 3340 C680 3340 660 3340 680 3340" style="fill:transparent;stroke:black" /><rect x="746" y="3320" width="137" height="40" style="fill:green;stroke:black;stroke-width:1" /><text x="756" y="3330" font-size="8" style="fill:white">Francesco Bagnaia</text><rect x="680" y="3370" width="200" height="40" style="fill:white;stroke:black;stroke-width:1" /><text x="690" y="3380" font-size="10" style="fill:blue">puntos</text><path d="M660 3340 C680 3340 660 3390 680 3390" style="fill:transparent;stroke:black" /><rect x="746" y="3370" width="137" height="40" style="fill:green;stroke:black;stroke-width:1" /><text x="756" y="3380" font-size="8" style="fill:white">16</text></svg>